<?xml version="1.0" encoding="UTF-8"?>
<!DOCTYPE svg PUBLIC "-//W3C//DTD SVG 1.1//EN" "http://www.w3.org/Graphics/SVG/1.1/DTD/svg11.dtd">
<!-- Creator: CorelDRAW X7 -->
<svg xmlns="http://www.w3.org/2000/svg" xml:space="preserve" width="1.26631in" height="1.1403in" version="1.1" style="shape-rendering:geometricPrecision; text-rendering:geometricPrecision; image-rendering:optimizeQuality; fill-rule:evenodd; clip-rule:evenodd"
viewBox="0 0 81 73"
 xmlns:xlink="http://www.w3.org/1999/xlink">
 <defs>
  <style type="text/css">
   <![CDATA[
    .str1 {stroke:#2A5082;stroke-width:1.338}
    .str2 {stroke:#2A5082;stroke-width:1.33826}
    .str3 {stroke:#2A5082;stroke-width:1.33826}
    .str0 {stroke:#BCC0C4;stroke-width:1.33826}
    .str4 {stroke:#2A5082;stroke-width:1.338;stroke-linecap:round;stroke-linejoin:round}
    .fil0 {fill:none}
    .fil2 {fill:#A3D4FF}
    .fil1 {fill:#E9EAEB}
   ]]>
  </style>
 </defs>
 <g id="Layer_x0020_1">
  <metadata id="CorelCorpID_0Corel-Layer"/>
  <g id="_438468856">
   <path class="fil0 str0" d="M45 8l-8 0c-1,-2 -3,-3 -4,-3 -1,0 -1,0 -2,0 -1,-2 -3,-4 -6,-4 -4,0 -7,4 -7,7l-11 0"/>
   <line class="fil0 str0" x1="14" y1="18" x2="5" y2= "18" />
   <path class="fil0 str0" d="M81 14l-4 0c-1,-3 -2,-3 -5,-3 -1,-2 -2,-3 -4,-3 -3,0 -6,2 -6,6l-5 0"/>
   <line class="fil0 str0" x1="16" y1="18" x2="19" y2= "18" />
   <line class="fil0 str0" x1="48" y1="8" x2="51" y2= "8" />
   <line class="fil0 str0" x1="53" y1="8" x2="56" y2= "8" />
  </g>
  <g id="_438469816">
   <polyline class="fil0 str1" points="8,37 8,25 20,25 "/>
   <polyline class="fil0 str1" points="10,37 10,27 20,27 "/>
   <polyline class="fil0 str1" points="52,37 52,25 40,25 "/>
   <polyline class="fil0 str1" points="50,37 50,27 40,27 "/>
   <polyline class="fil0 str1" points="52,57 52,69 40,69 "/>
   <polyline class="fil0 str1" points="50,57 50,67 40,67 "/>
   <polyline class="fil0 str1" points="8,57 8,69 20,69 "/>
   <polyline class="fil0 str1" points="10,57 10,67 20,67 "/>
   <rect class="fil0 str1" x="15" y="32" width="29.5953" height="29.9711"/>
   <rect class="fil1 str1" x="15" y="32" width="9.34836" height="9.20736"/>
   <rect class="fil1 str1" x="35" y="32" width="9.34836" height="9.20736"/>
   <rect class="fil1 str1" x="15" y="53" width="9.34836" height="9.20736"/>
   <rect class="fil0 str1" x="18" y="35" width="4.03998" height="4.03998"/>
   <rect class="fil0 str1" x="38" y="35" width="4.03998" height="4.03998"/>
   <rect class="fil0 str1" x="18" y="55" width="4.03998" height="4.03998"/>
   <rect class="fil0 str1" x="25" y="44" width="6.38887" height="3.19439"/>
   <rect class="fil0 str1" x="29" y="41" width="3.19439" height="2.81869"/>
   <rect class="fil0 str1" x="33" y="35" width="2.72459" height="3.47629"/>
   <rect class="fil0 str1" x="25" y="35" width="4.22788" height="3.47629"/>
   <rect class="fil0 str1" x="18" y="50" width="3.57028" height="3.10059"/>
   <rect class="fil0 str1" x="36" y="56" width="6.01298" height="3.00659"/>
   <polygon class="fil1 str1" points="27,50 33,50 33,59 27,59 27,56 30,56 30,53 27,53 "/>
   <polygon class="fil0 str1" points="42,44 36,44 36,53 42,53 42,50 39,50 39,47 42,47 "/>
   <rect class="fil0 str1" x="18" y="44" width="3.57028" height="3.10059"/>
  </g>
  <line class="fil0 str2" x1="5" y1="73" x2="69" y2= "73" />
  <line class="fil0 str3" x1="3" y1="73" x2="0" y2= "73" />
  <line class="fil0 str2" x1="71" y1="73" x2="76" y2= "73" />
  <line class="fil0 str2" x1="79" y1="73" x2="81" y2= "73" />
  <g id="_438456952">
   <path class="fil0 str1" d="M59 56l5 -5c3,3 7,6 9,8 2,2 -2,7 -4,5l-10 -8z"/>
   <line class="fil0 str4" x1="61" y1="59" x2="67" y2= "52" />
   <path class="fil2" d="M46 39c4,-4 11,-5 15,-1 5,4 5,11 1,16 -4,5 -11,5 -15,1 -5,-4 -6,-11 -1,-16zm2 3c3,-4 8,-4 11,-1 3,3 3,7 1,11 -3,3 -8,3 -11,0 -3,-3 -3,-7 -1,-10z"/>
   <path class="fil0 str4" d="M61 48c0,1 -1,3 -1,4 -3,3 -8,3 -11,0 -3,-3 -3,-7 -1,-10 3,-4 8,-4 11,-1 1,1 1,1 2,2"/>
   <circle class="fil0 str1" cx="54" cy="47" r="11"/>
  </g>
 </g>
</svg>
